<svg id="Слой_1" data-name="Слой 1" xmlns="http://www.w3.org/2000/svg" viewBox="0 0 300 131"><defs><style>.cls-1{fill:#fff;}.cls-2{fill:#086d3d;}.cls-3{fill:#0e1213;}.cls-4{fill:#111;}</style></defs><title>лого-укр-01</title><path class="cls-1" d="M39.85,89l7.68-2s1.62,2.23,11.27.65l8.4-7.12c10.13-8.64,26-22.27,27.06-24.14l.29-13.8L67.21,65.74Z"/><path class="cls-1" d="M85.42,27.71,67.21,42,56.15,50.6s1.21,14.17-.6,15.79c-1.62,1.47-1.8-14.33-1.8-14.33l-5.61,5.17c0,1.93,1.63,13.6-.53,15.55C46,74.25,45.8,58.87,45.8,58.87S33.94,66.56,35.51,83.59c0,0-6.22,5.53-8.36,7a3.42,3.42,0,0,0-.84.89V46l-5-9.87-8-15.9v89.68l13-13L67.21,61.68,94.55,38.13V20.56Z"/><path class="cls-2" d="M101.2,11.16H6.62A6.62,6.62,0,0,0,0,17.78v94.58A6.62,6.62,0,0,0,6.62,119H101.2a6.62,6.62,0,0,0,6.62-6.62V17.78A6.62,6.62,0,0,0,101.2,11.16ZM94.27,56.32c-1.11,1.87-16.93,15.5-27.06,24.14l-8.4,7.12c-9.66,1.59-11.27-.65-11.27-.65l-7.68,2L67.21,65.74,94.55,42.52Zm.29-18.19L67.21,61.68,26.28,97l-13,13V20.23l8,15.9,5,9.87V91.5a3.42,3.42,0,0,1,.84-.89c2.14-1.5,8.36-7,8.36-7-1.57-17,10.29-24.72,10.29-24.72S46,74.25,47.6,72.79c2.16-2,.52-13.62.53-15.55l5.61-5.17s.18,15.79,1.8,14.33c1.81-1.61.6-15.79.6-15.79L67.21,42,85.42,27.71l9.13-7.15Z"/><path class="cls-3" d="M187.19,26.66a3.9,3.9,0,0,0,0,7.8,3.9,3.9,0,1,0,0-7.8Z"/><rect class="cls-3" x="183.99" y="42.52" width="6.41" height="40.98"/><polygon class="cls-3" points="218.73 75.24 204.46 42.52 197.47 42.52 215.39 83.51 220.38 83.51 238.04 42.52 232.81 42.52 218.73 75.24"/><path class="cls-3" d="M294.63,79c-3.47,0-5.11-1.73-5.11-5.72V47.49h8.58v-5h-8.58v-10H283.1v10h-7.19v5h7.19V74c0,7.71,3,10.23,10,10.23a21,21,0,0,0,6.85-1.31v-5.2A12.53,12.53,0,0,1,294.63,79Z"/><path class="cls-3" d="M257.28,41.65c-9.53,0-14.9,2.51-14.9,2.51v5.55a28.64,28.64,0,0,1,13.08-3c6.84,0,8.93,3.12,8.93,9v3.46l-7.19,1c-9.45,1.21-18.45,2.69-18.45,12.56,0,7.45,5,11.61,12.21,11.61A20.06,20.06,0,0,0,264.39,79v4.52h6.41V55C270.8,47.2,267.77,41.65,257.28,41.65Zm7.11,32.57s-4.94,4.68-11.61,4.68c-4.51,0-7.46-2.25-7.46-6.33,0-5.54,4.51-7.1,12.3-8.14l6.77-.86V74.23Z"/><polygon class="cls-3" points="150.86 73.67 129.33 24.41 121.09 24.41 146.92 83.51 153.31 83.51 178.82 24.41 172.12 24.41 150.86 73.67"/><path class="cls-4" d="M134.3,98.34a1.12,1.12,0,0,1,.35-.8,1.21,1.21,0,0,1,.91-.36,1.27,1.27,0,0,1,.93.36,1.09,1.09,0,0,1,.37.8,1,1,0,0,1-.37.78,1.31,1.31,0,0,1-.93.34,1.24,1.24,0,0,1-.91-.34A1.05,1.05,0,0,1,134.3,98.34Zm.42,2.41h1.77v10.12h-1.77Z"/><path class="cls-4" d="M147.19,106.46h-5.09v4.41h-1.77V100.75h1.77v4.12h5.09v-4.12H149v10.12h-1.77Z"/><path class="cls-4" d="M159.45,102.26h-3.51v8.62h-1.77v-8.62h-3.51v-1.5h8.79Z"/><path class="cls-4" d="M169.07,110a5.37,5.37,0,0,1-1.68.8,7.61,7.61,0,0,1-2.18.3,5.92,5.92,0,0,1-2.21-.38,3.9,3.9,0,0,1-1.53-1.07,4.46,4.46,0,0,1-.89-1.68,7.78,7.78,0,0,1-.29-2.2,5.64,5.64,0,0,1,1.28-4,4.74,4.74,0,0,1,3.65-1.38,7.09,7.09,0,0,1,1.5.16,3.42,3.42,0,0,1,1.35.62,3.31,3.31,0,0,1,1,1.24,4.83,4.83,0,0,1,.38,2.06q0,.31,0,.71a7.64,7.64,0,0,1-.08.79h-7.23a4,4,0,0,0,.85,2.68,3.55,3.55,0,0,0,2.76.91,4.28,4.28,0,0,0,1.54-.28,3.4,3.4,0,0,0,1.14-.66Zm-1.33-5.26a2.84,2.84,0,0,0-.63-2.18,2.58,2.58,0,0,0-1.86-.64,3.31,3.31,0,0,0-2.14.64,3,3,0,0,0-.93,2.18Z"/><path class="cls-4" d="M172.37,100.75h1.19l.35,1.29h.17a3.53,3.53,0,0,1,1.35-1.17,4.79,4.79,0,0,1,5.15.81,5.82,5.82,0,0,1,1.08,3.9,7,7,0,0,1-.36,2.3,4.94,4.94,0,0,1-1,1.75,4.41,4.41,0,0,1-1.62,1.11,5.65,5.65,0,0,1-2.13.39q-.39,0-.7,0a3.78,3.78,0,0,1-.59-.1l-.54-.15-.56-.2v4.07h-1.77Zm4.51,1.21a2.62,2.62,0,0,0-1.8.58,3.36,3.36,0,0,0-.94,1.77V109a3.72,3.72,0,0,0,1,.48,4.23,4.23,0,0,0,1.32.17,3,3,0,0,0,2.43-1,4.56,4.56,0,0,0,.88-3,4.68,4.68,0,0,0-.65-2.62A2.44,2.44,0,0,0,176.88,102Z"/><path class="cls-4" d="M191.37,106.46h-5.09v4.41h-1.77V100.75h1.77v4.12h5.09v-4.12h1.77v10.12h-1.77Z"/><path class="cls-4" d="M204.77,110a5.37,5.37,0,0,1-1.68.8,7.61,7.61,0,0,1-2.18.3,5.92,5.92,0,0,1-2.21-.38,3.9,3.9,0,0,1-1.53-1.07,4.46,4.46,0,0,1-.89-1.68,7.78,7.78,0,0,1-.29-2.2,5.64,5.64,0,0,1,1.28-4,4.74,4.74,0,0,1,3.65-1.38,7.09,7.09,0,0,1,1.5.16,3.42,3.42,0,0,1,1.35.62,3.31,3.31,0,0,1,1,1.24,4.83,4.83,0,0,1,.38,2.06q0,.31,0,.71a7.64,7.64,0,0,1-.08.79h-7.23a4,4,0,0,0,.85,2.68,3.55,3.55,0,0,0,2.76.91,4.28,4.28,0,0,0,1.54-.28,3.4,3.4,0,0,0,1.14-.66Zm-1.33-5.26a2.84,2.84,0,0,0-.63-2.18A2.58,2.58,0,0,0,201,102a3.31,3.31,0,0,0-2.14.64,3,3,0,0,0-.93,2.18Z"/><path class="cls-4" d="M215.16,102.26h-3.51v8.62h-1.77v-8.62h-3.51v-1.5h8.79Z"/><path class="cls-4" d="M215.35,104.43h5.13v1.7h-5.13Z"/><path class="cls-4" d="M232.74,105.15l.12-2.06h-.23l-.86,1.58-2.58,3.84h-.6l-2.74-3.84-.77-1.58h-.21l.17,2v5.74h-1.64V100.75h1.85l3,4.45.73,1.41.8-1.45,2.8-4.41h1.89v10.12h-1.77Z"/><path class="cls-4" d="M237.79,101.39a9.94,9.94,0,0,1,4.3-.83,4.84,4.84,0,0,1,1.86.3,2.82,2.82,0,0,1,1.09.76,2.4,2.4,0,0,1,.51,1,5.24,5.24,0,0,1,.13,1.13q0,1.06-.08,2.13t-.08,2.32q0,.73.07,1.42a7.82,7.82,0,0,0,.22,1.26h-1.29l-.48-1.54h-.19a4.61,4.61,0,0,1-.52.59,3.34,3.34,0,0,1-.73.53,4.62,4.62,0,0,1-1,.39,4.7,4.7,0,0,1-1.26.15,4.09,4.09,0,0,1-1.31-.2,3.14,3.14,0,0,1-1-.57,2.61,2.61,0,0,1-.68-.9,2.73,2.73,0,0,1-.25-1.19,2.9,2.9,0,0,1,.38-1.5,3.22,3.22,0,0,1,1-1,4.28,4.28,0,0,1,1.36-.6,6.17,6.17,0,0,1,1.51-.19l1,0,.69,0,.47.06.35,0c0-.19,0-.36.06-.5s0-.32,0-.54a3,3,0,0,0-.12-.91,1.24,1.24,0,0,0-.38-.59,1.59,1.59,0,0,0-.7-.32,5.18,5.18,0,0,0-1.08-.1,6.3,6.3,0,0,0-.81.06,8.67,8.67,0,0,0-1.76.42,7.12,7.12,0,0,0-.78.33Zm6,4.9-.32-.06-.43-.06-.61,0-.87,0a3.62,3.62,0,0,0-1.88.42A1.56,1.56,0,0,0,239,108a1.32,1.32,0,0,0,.54,1.16,2.37,2.37,0,0,0,1.41.39,3.5,3.5,0,0,0,1.12-.16,3.45,3.45,0,0,0,.84-.4,2.31,2.31,0,0,0,.57-.54,2.6,2.6,0,0,0,.33-.59Z"/><path class="cls-4" d="M255.64,102.26H250.9v8.62h-1.77V100.75h6.51Z"/><path class="cls-4" d="M257.22,101.39a9.94,9.94,0,0,1,4.3-.83,4.84,4.84,0,0,1,1.86.3,2.82,2.82,0,0,1,1.09.76,2.4,2.4,0,0,1,.51,1,5.24,5.24,0,0,1,.13,1.13q0,1.06-.08,2.13t-.08,2.32q0,.73.07,1.42a7.82,7.82,0,0,0,.22,1.26h-1.29l-.48-1.54h-.19a4.61,4.61,0,0,1-.52.59,3.34,3.34,0,0,1-.73.53,4.62,4.62,0,0,1-1,.39,4.7,4.7,0,0,1-1.26.15,4.09,4.09,0,0,1-1.31-.2,3.14,3.14,0,0,1-1-.57,2.61,2.61,0,0,1-.68-.9,2.73,2.73,0,0,1-.25-1.19,2.9,2.9,0,0,1,.38-1.5,3.22,3.22,0,0,1,1-1,4.28,4.28,0,0,1,1.36-.6,6.17,6.17,0,0,1,1.51-.19l1,0,.69,0,.47.06.35,0c0-.19,0-.36.06-.5s0-.32,0-.54a3,3,0,0,0-.12-.91,1.24,1.24,0,0,0-.38-.59,1.59,1.59,0,0,0-.7-.32,5.18,5.18,0,0,0-1.08-.1,6.3,6.3,0,0,0-.81.06,8.67,8.67,0,0,0-1.76.42,7.12,7.12,0,0,0-.78.33Zm6,4.9-.32-.06-.43-.06-.61,0-.87,0a3.62,3.62,0,0,0-1.88.42,1.56,1.56,0,0,0-.7,1.45,1.32,1.32,0,0,0,.54,1.16,2.37,2.37,0,0,0,1.41.39,3.5,3.5,0,0,0,1.12-.16,3.45,3.45,0,0,0,.84-.4,2.31,2.31,0,0,0,.57-.54,2.6,2.6,0,0,0,.33-.59Z"/><path class="cls-4" d="M269.71,106.38V105h1.49a2.93,2.93,0,0,0,.82-.12,2.6,2.6,0,0,0,.71-.32,1.67,1.67,0,0,0,.49-.48,1.08,1.08,0,0,0,.18-.61,1.14,1.14,0,0,0-.6-1.12,4.14,4.14,0,0,0-1.82-.31,6.16,6.16,0,0,0-1.56.18,8.12,8.12,0,0,0-1.15.38l-.48-1.35a7.8,7.8,0,0,1,3.76-.71,4.85,4.85,0,0,1,2.74.64,2.11,2.11,0,0,1,.93,1.85,2,2,0,0,1-.13.67,2.38,2.38,0,0,1-.38.66,3.09,3.09,0,0,1-.61.58,2.62,2.62,0,0,1-.82.39v.21a3,3,0,0,1,1.83.86,2.46,2.46,0,0,1,.52,1.63,2.51,2.51,0,0,1-.29,1.19,2.71,2.71,0,0,1-.87,1,4.54,4.54,0,0,1-1.46.64,8,8,0,0,1-2,.23,9.5,9.5,0,0,1-1.88-.15,5.72,5.72,0,0,1-1.34-.44l.46-1.41a4,4,0,0,0,1.24.39,10.17,10.17,0,0,0,1.59.12q2.64,0,2.64-1.68a1.25,1.25,0,0,0-.63-1.14,4.49,4.49,0,0,0-2.19-.39Z"/><path class="cls-4" d="M285.5,105.09l.27-2h-.21l-.94,1.89-4.74,5.9H278.5V100.75h1.77v6l-.13,1.77h.21l.89-1.72,4.65-6h1.39v10.12H285.5Z"/><path class="cls-4" d="M297.53,106.46h-5.09v4.41h-1.77V100.75h1.77v4.12h5.09v-4.12h1.77v10.12h-1.77Z"/></svg>